<svg
    xmlns="http://www.w3.org/2000/svg"
    version="1.1"
    xmlns:xlink="http://www.w3.org/1999/xlink"
    style="font-size: 10pt; overflow: visible;"
    viewBox="149.18096923828125 -294.2467346191406 117.38601684570312 87.70565795898438"
>
    <defs>
        <path
            id="MJX-139-TEX-I-1D446"
            d="M308 24Q367 24 416 76T466 197Q466 260 414 284Q308 311 278 321T236 341Q176 383 176 462Q176 523 208 573T273 648Q302 673 343 688T407 704H418H425Q521 704 564 640Q565 640 577 653T603 682T623 704Q624 704 627 704T632 705Q645 705 645 698T617 577T585 459T569 456Q549 456 549 465Q549 471 550 475Q550 478 551 494T553 520Q553 554 544 579T526 616T501 641Q465 662 419 662Q362 662 313 616T263 510Q263 480 278 458T319 427Q323 425 389 408T456 390Q490 379 522 342T554 242Q554 216 546 186Q541 164 528 137T492 78T426 18T332 -20Q320 -22 298 -22Q199 -22 144 33L134 44L106 13Q83 -14 78 -18T65 -22Q52 -22 52 -14Q52 -11 110 221Q112 227 130 227H143Q149 221 149 216Q149 214 148 207T144 186T142 153Q144 114 160 87T203 47T255 29T308 24Z"
        />
        <path
            id="MJX-140-TEX-I-1D436"
            d="M50 252Q50 367 117 473T286 641T490 704Q580 704 633 653Q642 643 648 636T656 626L657 623Q660 623 684 649Q691 655 699 663T715 679T725 690L740 705H746Q760 705 760 698Q760 694 728 561Q692 422 692 421Q690 416 687 415T669 413H653Q647 419 647 422Q647 423 648 429T650 449T651 481Q651 552 619 605T510 659Q484 659 454 652T382 628T299 572T226 479Q194 422 175 346T156 222Q156 108 232 58Q280 24 350 24Q441 24 512 92T606 240Q610 253 612 255T628 257Q648 257 648 248Q648 243 647 239Q618 132 523 55T319 -22Q206 -22 128 53T50 252Z"
        />
        <path
            id="MJX-141-TEX-I-1D434"
            d="M208 74Q208 50 254 46Q272 46 272 35Q272 34 270 22Q267 8 264 4T251 0Q249 0 239 0T205 1T141 2Q70 2 50 0H42Q35 7 35 11Q37 38 48 46H62Q132 49 164 96Q170 102 345 401T523 704Q530 716 547 716H555H572Q578 707 578 706L606 383Q634 60 636 57Q641 46 701 46Q726 46 726 36Q726 34 723 22Q720 7 718 4T704 0Q701 0 690 0T651 1T578 2Q484 2 455 0H443Q437 6 437 9T439 27Q443 40 445 43L449 46H469Q523 49 533 63L521 213H283L249 155Q208 86 208 74ZM516 260Q516 271 504 416T490 562L463 519Q447 492 400 412L310 260L413 259Q516 259 516 260Z"
        />
        <path
            id="MJX-142-TEX-I-1D435"
            d="M231 637Q204 637 199 638T194 649Q194 676 205 682Q206 683 335 683Q594 683 608 681Q671 671 713 636T756 544Q756 480 698 429T565 360L555 357Q619 348 660 311T702 219Q702 146 630 78T453 1Q446 0 242 0Q42 0 39 2Q35 5 35 10Q35 17 37 24Q42 43 47 45Q51 46 62 46H68Q95 46 128 49Q142 52 147 61Q150 65 219 339T288 628Q288 635 231 637ZM649 544Q649 574 634 600T585 634Q578 636 493 637Q473 637 451 637T416 636H403Q388 635 384 626Q382 622 352 506Q352 503 351 500L320 374H401Q482 374 494 376Q554 386 601 434T649 544ZM595 229Q595 273 572 302T512 336Q506 337 429 337Q311 337 310 336Q310 334 293 263T258 122L240 52Q240 48 252 48T333 46Q422 46 429 47Q491 54 543 105T595 229Z"
        />
    </defs>
    <g class="">
        <rect
            width="60.083666666666666"
            height="83.70566666666667"
            style=""
            x="0.6666666666666679"
            y="0.6666666666666643"
            transform="matrix(1,0,0,1,174.80347244094486,-292.9133858267716)"
            stroke-dasharray="1pt 0pt"
            stroke-opacity="1"
            stroke-width="1.3333333333333333"
            stroke="#000"
            fill-opacity="1"
            fill="none"
        />
    </g>
    <g class="">
        <polyline
            points="174.8029724409449,-264.56688582677157 151.18097244094488,-264.56688582677157"
            fill="none"
            stroke-dasharray="0.4pt 0pt"
            stroke-opacity="1"
            stroke-width="0.5333333333333333"
            stroke="#000"
        />
    </g>
    <g class="">
        <polyline
            points="174.8029724409449,-236.2198858267716 151.18097244094488,-236.2198858267716"
            fill="none"
            stroke-dasharray="0.4pt 0pt"
            stroke-opacity="1"
            stroke-width="0.5333333333333333"
            stroke="#000"
        />
    </g>
    <g class="">
        <polyline
            points="264.56692913385825,-264.56692913385825 236.21997244094493,-264.56692913385825 236.21997244094493,-264.56688582677157"
            fill="none"
            stroke-dasharray="0.4pt 0pt"
            stroke-opacity="1"
            stroke-width="0.5333333333333333"
            stroke="#000"
        />
    </g>
    <g class="">
        <polyline
            points="264.56697244094494,-236.2208858267716 236.21997244094493,-236.2208858267716"
            fill="none"
            stroke-dasharray="0.4pt 0pt"
            stroke-opacity="1"
            stroke-width="0.5333333333333333"
            stroke="#000"
        />
    </g>
    <g class="">
        <rect
            width="31.737666666666666"
            height="27.012666666666668"
            x="0.6666666666666661"
            y="0.6666666666666661"
            transform="matrix(1,0,0,1,188.97647244094486,-264.56688582677157)"
            style=""
            stroke-dasharray="1pt 0pt"
            stroke-opacity="0"
            stroke-width="0"
            stroke="#000"
            fill-opacity="1"
            fill="none"
        />
        <g
            transform="matrix(1,0,0,1,0,0)"
            style="pointer-events: none;"
            class=""
        >
            <g
                fill="#000"
                transform="matrix(1,0,0,1,196.97647244094486,-256.56688582677157)"
            />
            <g
                fill="#000"
                transform="matrix(1,0,0,1,196.97647244094486,-256.56688582677157)"
            >
                <path
                    d="M0.44 10L0.44 10L0.44 9.59L0.76 9.59Q1.48 9.59 1.65 9.47Q1.82 9.35 1.82 8.96L1.82 8.96L1.82 1.93Q1.82 1.55 1.65 1.43Q1.48 1.31 0.76 1.31L0.76 1.31L0.44 1.31L0.44 0.89Q0.91 0.93 2.42 0.93L2.42 0.93Q3.91 0.93 4.38 0.89L4.38 0.89L4.38 1.31L4.06 1.31Q3.33 1.31 3.17 1.43Q3.00 1.55 3.00 1.93L3.00 1.93L3.00 5.05L6.99 5.05L6.99 1.93Q6.99 1.55 6.82 1.43Q6.65 1.31 5.93 1.31L5.93 1.31L5.61 1.31L5.61 0.89Q6.08 0.93 7.58 0.93L7.58 0.93Q9.08 0.93 9.54 0.89L9.54 0.89L9.54 1.31L9.23 1.31Q8.50 1.31 8.34 1.43Q8.17 1.55 8.17 1.93L8.17 1.93L8.17 8.96Q8.17 9.34 8.34 9.47Q8.51 9.59 9.23 9.59L9.23 9.59L9.54 9.59L9.54 10Q9.08 9.96 7.57 9.96L7.57 9.96Q6.08 9.96 5.61 10L5.61 10L5.61 9.59L5.93 9.59Q6.65 9.59 6.82 9.47Q6.99 9.35 6.99 8.96L6.99 8.96L6.99 5.47L3.00 5.47L3.00 8.96Q3.00 9.34 3.17 9.47Q3.33 9.59 4.06 9.59L4.06 9.59L4.38 9.59L4.38 10Q3.91 9.96 2.40 9.96L2.40 9.96Q0.91 9.96 0.44 10ZM10.43 10L10.43 10L10.43 9.59Q11.61 9.56 11.92 8.69L11.92 8.69L14.68 0.72Q14.73 0.56 14.79 0.51Q14.85 0.46 15 0.46L15 0.46Q15.08 0.46 15.13 0.47Q15.18 0.48 15.21 0.53Q15.24 0.57 15.25 0.60Q15.27 0.63 15.31 0.72L15.31 0.72L18.18 9.06Q18.29 9.39 18.50 9.49Q18.72 9.59 19.32 9.59L19.32 9.59L19.56 9.59L19.56 10Q18.72 9.96 17.81 9.96L17.81 9.96Q16.37 9.96 15.89 10L15.89 10L15.89 9.59Q17.00 9.59 17.00 9.19L17.00 9.19Q17.00 9.16 16.96 9.00L16.96 9.00L16.26 6.96L12.96 6.96L12.34 8.70Q12.32 8.76 12.32 8.91L12.32 8.91Q12.32 9.19 12.58 9.39Q12.84 9.59 13.32 9.59L13.32 9.59L13.32 10Q12.04 9.96 11.78 9.96L11.78 9.96Q11.35 9.96 10.43 10ZM14.60 2.21L13.11 6.55L16.11 6.55L14.60 2.21Z"
                />
            </g>
        </g>
    </g>
    <g class="">
        <rect
            width="17.564666666666668"
            height="17.564666666666668"
            style=""
            x="0.6666666666666661"
            y="0.6666666666666661"
            transform="matrix(1,0,0,1,217.32297244094485,-274.0158858267716)"
            stroke-dasharray="1pt 0pt"
            stroke-opacity="0"
            stroke-width="0"
            stroke="#000000"
            fill-opacity="1"
            fill="none"
        />
        <g
            class="pointerNone"
            transform="matrix(1,0,0,1,222.08178647683735,-259.96946942586214)"
            fill="#000"
        >
            <g
                transform="matrix(0.013458207651378699,0,0,0.013462420109592579,0,0)"
            >
                <g
                    stroke="currentColor"
                    fill="inherit"
                    stroke-width="0"
                    transform="scale(1,-1)"
                >
                    <use xlink:href="#MJX-139-TEX-I-1D446" />
                </g>
            </g>
        </g>
        <g
            transform="matrix(1,0,0,1,0,0)"
            style="pointer-events: none;"
            class=""
        >
            <g
                fill="#000"
                transform="matrix(1,0,0,1,225.32297244094485,-266.0158858267716)"
            />
            <g
                fill="#000"
                transform="matrix(1,0,0,1,225.32297244094485,-266.0158858267716)"
            />
        </g>
    </g>
    <g class="">
        <rect
            width="17.564666666666668"
            height="17.564666666666668"
            style=""
            x="0.6666666666666661"
            y="0.6666666666666661"
            transform="matrix(1,0,0,1,217.32297244094485,-245.6688858267716)"
            stroke-dasharray="1pt 0pt"
            stroke-opacity="0"
            stroke-width="0"
            stroke="#000000"
            fill-opacity="1"
            fill="none"
        />
        <g
            class="pointerNone"
            transform="matrix(1,0,0,1,221.32181664632435,-231.62246942586216)"
            fill="#000"
        >
            <g
                transform="matrix(0.013457175989777052,0,0,0.013462420109592579,0,0)"
            >
                <g
                    stroke="currentColor"
                    fill="inherit"
                    stroke-width="0"
                    transform="scale(1,-1)"
                >
                    <use xlink:href="#MJX-140-TEX-I-1D436" />
                </g>
            </g>
        </g>
        <g
            transform="matrix(1,0,0,1,0,0)"
            style="pointer-events: none;"
            class=""
        >
            <g
                fill="#000"
                transform="matrix(1,0,0,1,225.32297244094485,-237.6688858267716)"
            />
            <g
                fill="#000"
                transform="matrix(1,0,0,1,225.32297244094485,-237.6688858267716)"
            />
        </g>
    </g>
    <g class="">
        <rect
            width="17.564666666666668"
            height="17.564666666666668"
            style=""
            x="0.6666666666666661"
            y="0.6666666666666661"
            transform="matrix(1,0,0,1,174.80297244094487,-274.0158858267716)"
            stroke-dasharray="1pt 0pt"
            stroke-opacity="0"
            stroke-width="0"
            stroke="#000000"
            fill-opacity="1"
            fill="none"
        />
        <g
            class="pointerNone"
            transform="matrix(1,0,0,1,179.12965026901838,-259.74766623753817)"
            fill="#000"
        >
            <g
                transform="matrix(0.013462081844122755,0,0,0.01346150571383706,0,0)"
            >
                <g
                    stroke="currentColor"
                    fill="inherit"
                    stroke-width="0"
                    transform="scale(1,-1)"
                >
                    <use xlink:href="#MJX-141-TEX-I-1D434" />
                </g>
            </g>
        </g>
        <g
            transform="matrix(1,0,0,1,0,0)"
            style="pointer-events: none;"
            class=""
        >
            <g
                fill="#000"
                transform="matrix(1,0,0,1,182.80297244094487,-266.0158858267716)"
            />
            <g
                fill="#000"
                transform="matrix(1,0,0,1,182.80297244094487,-266.0158858267716)"
            />
        </g>
    </g>
    <g class="">
        <rect
            width="17.564666666666668"
            height="17.564666666666668"
            style=""
            x="0.6666666666666661"
            y="0.6666666666666661"
            transform="matrix(1,0,0,1,174.80297244094487,-245.6688858267716)"
            stroke-dasharray="1pt 0pt"
            stroke-opacity="0"
            stroke-width="0"
            stroke="#000000"
            fill-opacity="1"
            fill="none"
        />
        <g
            class="pointerNone"
            transform="matrix(1,0,0,1,178.92884719775793,-231.6237788206986)"
            fill="#000"
        >
            <g
                transform="matrix(0.013459228519031943,0,0,0.013458585805868112,0,0)"
            >
                <g
                    stroke="currentColor"
                    fill="inherit"
                    stroke-width="0"
                    transform="scale(1,-1)"
                >
                    <use xlink:href="#MJX-142-TEX-I-1D435" />
                </g>
            </g>
        </g>
        <g
            transform="matrix(1,0,0,1,0,0)"
            style="pointer-events: none;"
            class=""
        >
            <g
                fill="#000"
                transform="matrix(1,0,0,1,182.80297244094487,-237.6688858267716)"
            />
            <g
                fill="#000"
                transform="matrix(1,0,0,1,182.80297244094487,-237.6688858267716)"
            />
        </g>
    </g>
</svg>
